<svg width="375" height="100" viewBox="0 0 375 100" fill="none" xmlns="http://www.w3.org/2000/svg">
<g filter="url(#filter0_d_75_23)">
<rect x="18" y="9" width="335" height="60" rx="8" fill="#F6BD11" shape-rendering="crispEdges"/>
<path d="M56 25.841V52.1576C56.0002 52.2147 56.0185 52.2705 56.0527 52.318C56.0869 52.3654 56.1354 52.4024 56.1922 52.4244C56.2489 52.4464 56.3114 52.4523 56.3718 52.4414C56.4322 52.4305 56.4877 52.4033 56.5315 52.3632L71.2886 39L56.5315 25.6354C56.4877 25.5954 56.4322 25.5682 56.3718 25.5573C56.3114 25.5464 56.2489 25.5523 56.1922 25.5743C56.1354 25.5962 56.0869 25.6332 56.0527 25.6807C56.0185 25.7282 56.0002 25.7839 56 25.841ZM77.4761 33.509L58.9726 24.0431L58.9611 24.037C58.6423 23.8763 58.3394 24.2768 58.6005 24.5098L73.1052 37.3882L77.4761 33.509ZM58.6019 53.4902C58.3394 53.7232 58.6423 54.1237 58.9625 53.963L58.9741 53.9569L77.4761 44.491L73.1052 40.6105L58.6019 53.4902ZM84.9458 37.3259L79.7787 34.6835L74.9203 39L79.7787 43.3144L84.9458 40.6741C86.3514 39.9529 86.3514 38.0471 84.9458 37.3259Z" fill="#110F0F"/>
<path d="M102.166 47H98.793L98.8145 44.6797H102.166C103.076 44.6797 103.838 44.4792 104.454 44.0781C105.07 43.6699 105.535 43.0863 105.851 42.3271C106.166 41.5609 106.323 40.6442 106.323 39.5771V38.7715C106.323 37.9479 106.234 37.221 106.055 36.5908C105.876 35.9606 105.611 35.4307 105.26 35.001C104.916 34.5713 104.49 34.2454 103.981 34.0234C103.473 33.8014 102.889 33.6904 102.23 33.6904H98.7285V31.3594H102.23C103.276 31.3594 104.229 31.5348 105.088 31.8857C105.954 32.2367 106.703 32.7415 107.333 33.4004C107.97 34.0521 108.457 34.8327 108.794 35.7422C109.138 36.6517 109.31 37.6686 109.31 38.793V39.5771C109.31 40.6943 109.138 41.7113 108.794 42.6279C108.457 43.5374 107.97 44.318 107.333 44.9697C106.703 45.6214 105.951 46.1227 105.077 46.4736C104.203 46.8245 103.233 47 102.166 47ZM100.447 31.3594V47H97.4932V31.3594H100.447ZM111.104 41.3066V41.0811C111.104 40.2288 111.225 39.4447 111.469 38.7285C111.712 38.0052 112.067 37.3786 112.532 36.8486C112.998 36.3187 113.567 35.9069 114.24 35.6133C114.913 35.3125 115.68 35.1621 116.539 35.1621C117.413 35.1621 118.186 35.3125 118.859 35.6133C119.54 35.9069 120.113 36.3187 120.578 36.8486C121.044 37.3786 121.398 38.0052 121.642 38.7285C121.885 39.4447 122.007 40.2288 122.007 41.0811V41.3066C122.007 42.1517 121.885 42.9359 121.642 43.6592C121.398 44.3753 121.044 45.002 120.578 45.5391C120.113 46.069 119.543 46.4808 118.87 46.7744C118.197 47.068 117.427 47.2148 116.561 47.2148C115.701 47.2148 114.931 47.068 114.251 46.7744C113.571 46.4808 112.998 46.069 112.532 45.5391C112.067 45.002 111.712 44.3753 111.469 43.6592C111.225 42.9359 111.104 42.1517 111.104 41.3066ZM113.939 41.0811V41.3066C113.939 41.8151 113.99 42.2913 114.09 42.7354C114.19 43.1794 114.344 43.5697 114.552 43.9062C114.759 44.2428 115.028 44.5078 115.357 44.7012C115.694 44.8874 116.095 44.9805 116.561 44.9805C117.019 44.9805 117.413 44.8874 117.742 44.7012C118.072 44.5078 118.34 44.2428 118.548 43.9062C118.763 43.5697 118.92 43.1794 119.021 42.7354C119.121 42.2913 119.171 41.8151 119.171 41.3066V41.0811C119.171 40.5798 119.121 40.1107 119.021 39.6738C118.92 39.2298 118.763 38.8395 118.548 38.5029C118.34 38.1592 118.068 37.8906 117.731 37.6973C117.402 37.4967 117.005 37.3965 116.539 37.3965C116.081 37.3965 115.687 37.4967 115.357 37.6973C115.028 37.8906 114.759 38.1592 114.552 38.5029C114.344 38.8395 114.19 39.2298 114.09 39.6738C113.99 40.1107 113.939 40.5798 113.939 41.0811ZM127.303 44.207L129.849 35.377H131.653L131.116 38.4277L128.549 47H126.991L127.303 44.207ZM125.896 35.377L127.808 44.2285L127.979 47H126.186L123.135 35.377H125.896ZM134.017 44.0996L135.886 35.377H138.636L135.606 47H133.812L134.017 44.0996ZM131.933 35.377L134.457 44.1211L134.79 47H133.232L130.644 38.4277L130.117 35.377H131.933ZM143.094 37.8584V47H140.258V35.377H142.922L143.094 37.8584ZM142.643 40.7695H141.805C141.812 39.9245 141.926 39.1582 142.148 38.4707C142.37 37.7832 142.682 37.1924 143.083 36.6982C143.491 36.2041 143.975 35.8245 144.533 35.5596C145.092 35.2946 145.715 35.1621 146.402 35.1621C146.961 35.1621 147.466 35.2409 147.917 35.3984C148.368 35.556 148.755 35.8066 149.077 36.1504C149.407 36.4941 149.657 36.9453 149.829 37.5039C150.008 38.0553 150.098 38.7357 150.098 39.5449V47H147.24V39.5234C147.24 38.9935 147.161 38.5745 147.004 38.2666C146.854 37.9587 146.632 37.7402 146.338 37.6113C146.051 37.4824 145.697 37.418 145.274 37.418C144.838 37.418 144.454 37.5075 144.125 37.6865C143.803 37.8584 143.531 38.0983 143.309 38.4062C143.094 38.7142 142.929 39.0687 142.814 39.4697C142.7 39.8708 142.643 40.304 142.643 40.7695ZM155.608 30.5V47H152.762V30.5H155.608ZM157.811 41.3066V41.0811C157.811 40.2288 157.932 39.4447 158.176 38.7285C158.419 38.0052 158.774 37.3786 159.239 36.8486C159.705 36.3187 160.274 35.9069 160.947 35.6133C161.62 35.3125 162.387 35.1621 163.246 35.1621C164.12 35.1621 164.893 35.3125 165.566 35.6133C166.247 35.9069 166.82 36.3187 167.285 36.8486C167.751 37.3786 168.105 38.0052 168.349 38.7285C168.592 39.4447 168.714 40.2288 168.714 41.0811V41.3066C168.714 42.1517 168.592 42.9359 168.349 43.6592C168.105 44.3753 167.751 45.002 167.285 45.5391C166.82 46.069 166.25 46.4808 165.577 46.7744C164.904 47.068 164.134 47.2148 163.268 47.2148C162.408 47.2148 161.638 47.068 160.958 46.7744C160.278 46.4808 159.705 46.069 159.239 45.5391C158.774 45.002 158.419 44.3753 158.176 43.6592C157.932 42.9359 157.811 42.1517 157.811 41.3066ZM160.646 41.0811V41.3066C160.646 41.8151 160.697 42.2913 160.797 42.7354C160.897 43.1794 161.051 43.5697 161.259 43.9062C161.466 44.2428 161.735 44.5078 162.064 44.7012C162.401 44.8874 162.802 44.9805 163.268 44.9805C163.726 44.9805 164.12 44.8874 164.449 44.7012C164.779 44.5078 165.047 44.2428 165.255 43.9062C165.47 43.5697 165.627 43.1794 165.728 42.7354C165.828 42.2913 165.878 41.8151 165.878 41.3066V41.0811C165.878 40.5798 165.828 40.1107 165.728 39.6738C165.627 39.2298 165.47 38.8395 165.255 38.5029C165.047 38.1592 164.775 37.8906 164.438 37.6973C164.109 37.4967 163.712 37.3965 163.246 37.3965C162.788 37.3965 162.394 37.4967 162.064 37.6973C161.735 37.8906 161.466 38.1592 161.259 38.5029C161.051 38.8395 160.897 39.2298 160.797 39.6738C160.697 40.1107 160.646 40.5798 160.646 41.0811ZM177.179 44.5293V39.1689C177.179 38.7751 177.111 38.4349 176.975 38.1484C176.839 37.862 176.631 37.64 176.352 37.4824C176.072 37.3249 175.718 37.2461 175.288 37.2461C174.909 37.2461 174.576 37.3105 174.289 37.4395C174.01 37.5684 173.795 37.751 173.645 37.9873C173.494 38.2165 173.419 38.4814 173.419 38.7822H170.572C170.572 38.3024 170.687 37.8477 170.916 37.418C171.145 36.9811 171.471 36.5944 171.894 36.2578C172.323 35.9141 172.835 35.6455 173.43 35.4521C174.031 35.2588 174.704 35.1621 175.449 35.1621C176.33 35.1621 177.114 35.3125 177.802 35.6133C178.496 35.9069 179.041 36.3509 179.435 36.9453C179.836 37.5397 180.036 38.2881 180.036 39.1904V44.2607C180.036 44.8408 180.072 45.3385 180.144 45.7539C180.222 46.1621 180.337 46.5166 180.487 46.8174V47H177.598C177.462 46.7064 177.358 46.334 177.286 45.8828C177.215 45.4245 177.179 44.9733 177.179 44.5293ZM177.576 39.9209L177.598 41.6074H175.804C175.36 41.6074 174.969 41.654 174.633 41.7471C174.296 41.833 174.021 41.9619 173.806 42.1338C173.591 42.2985 173.43 42.499 173.322 42.7354C173.215 42.9645 173.161 43.2259 173.161 43.5195C173.161 43.806 173.226 44.0638 173.354 44.293C173.491 44.5221 173.684 44.7048 173.935 44.8408C174.192 44.9697 174.493 45.0342 174.837 45.0342C175.338 45.0342 175.775 44.9339 176.147 44.7334C176.52 44.5257 176.81 44.2751 177.018 43.9814C177.225 43.6878 177.336 43.4085 177.351 43.1436L178.167 44.3682C178.067 44.6618 177.916 44.9733 177.716 45.3027C177.515 45.6322 177.257 45.9401 176.942 46.2266C176.627 46.513 176.248 46.7493 175.804 46.9355C175.36 47.1217 174.844 47.2148 174.257 47.2148C173.505 47.2148 172.832 47.0645 172.237 46.7637C171.643 46.4629 171.174 46.0511 170.83 45.5283C170.486 45.0055 170.314 44.4111 170.314 43.7451C170.314 43.1292 170.429 42.585 170.658 42.1123C170.887 41.6396 171.228 41.2422 171.679 40.9199C172.13 40.5905 172.688 40.3434 173.354 40.1787C174.028 40.0068 174.798 39.9209 175.664 39.9209H177.576ZM189.564 44.5293V30.5H192.422V47H189.844L189.564 44.5293ZM182.099 41.3281V41.1025C182.099 40.2145 182.199 39.4089 182.399 38.6855C182.607 37.9551 182.908 37.3285 183.302 36.8057C183.696 36.2829 184.172 35.8783 184.73 35.5918C185.296 35.3053 185.937 35.1621 186.653 35.1621C187.348 35.1621 187.953 35.3018 188.469 35.5811C188.992 35.8604 189.436 36.2578 189.801 36.7734C190.173 37.2891 190.47 37.9014 190.692 38.6104C190.914 39.3122 191.076 40.0856 191.176 40.9307V41.543C191.076 42.3665 190.914 43.1221 190.692 43.8096C190.47 44.4971 190.173 45.0986 189.801 45.6143C189.436 46.1227 188.992 46.5166 188.469 46.7959C187.946 47.0752 187.334 47.2148 186.632 47.2148C185.923 47.2148 185.285 47.068 184.72 46.7744C184.161 46.4808 183.685 46.069 183.291 45.5391C182.904 45.0091 182.607 44.3861 182.399 43.6699C182.199 42.9538 182.099 42.1732 182.099 41.3281ZM184.945 41.1025V41.3281C184.945 41.8294 184.988 42.2985 185.074 42.7354C185.16 43.1722 185.3 43.5589 185.493 43.8955C185.687 44.2249 185.934 44.4827 186.234 44.6689C186.542 44.8551 186.915 44.9482 187.352 44.9482C187.91 44.9482 188.368 44.8265 188.727 44.583C189.092 44.3324 189.375 43.9922 189.575 43.5625C189.776 43.1257 189.905 42.6351 189.962 42.0908V40.4043C189.933 39.9746 189.858 39.5771 189.736 39.2119C189.622 38.8467 189.457 38.5316 189.242 38.2666C189.035 38.0016 188.777 37.7939 188.469 37.6436C188.161 37.4932 187.796 37.418 187.373 37.418C186.936 37.418 186.564 37.5146 186.256 37.708C185.948 37.8942 185.697 38.1556 185.504 38.4922C185.311 38.8288 185.167 39.2191 185.074 39.6631C184.988 40.1071 184.945 40.5869 184.945 41.1025ZM203.637 31.3594V47H200.683V31.3594H203.637ZM209.942 38.1162V40.4473H202.863V38.1162H209.942ZM210.77 31.3594V33.6904H202.863V31.3594H210.77ZM211.822 41.3066V41.0811C211.822 40.2288 211.944 39.4447 212.188 38.7285C212.431 38.0052 212.785 37.3786 213.251 36.8486C213.716 36.3187 214.286 35.9069 214.959 35.6133C215.632 35.3125 216.398 35.1621 217.258 35.1621C218.132 35.1621 218.905 35.3125 219.578 35.6133C220.258 35.9069 220.831 36.3187 221.297 36.8486C221.762 37.3786 222.117 38.0052 222.36 38.7285C222.604 39.4447 222.726 40.2288 222.726 41.0811V41.3066C222.726 42.1517 222.604 42.9359 222.36 43.6592C222.117 44.3753 221.762 45.002 221.297 45.5391C220.831 46.069 220.262 46.4808 219.589 46.7744C218.916 47.068 218.146 47.2148 217.279 47.2148C216.42 47.2148 215.65 47.068 214.97 46.7744C214.289 46.4808 213.716 46.069 213.251 45.5391C212.785 45.002 212.431 44.3753 212.188 43.6592C211.944 42.9359 211.822 42.1517 211.822 41.3066ZM214.658 41.0811V41.3066C214.658 41.8151 214.708 42.2913 214.809 42.7354C214.909 43.1794 215.063 43.5697 215.271 43.9062C215.478 44.2428 215.747 44.5078 216.076 44.7012C216.413 44.8874 216.814 44.9805 217.279 44.9805C217.738 44.9805 218.132 44.8874 218.461 44.7012C218.79 44.5078 219.059 44.2428 219.267 43.9062C219.481 43.5697 219.639 43.1794 219.739 42.7354C219.84 42.2913 219.89 41.8151 219.89 41.3066V41.0811C219.89 40.5798 219.84 40.1107 219.739 39.6738C219.639 39.2298 219.481 38.8395 219.267 38.5029C219.059 38.1592 218.787 37.8906 218.45 37.6973C218.121 37.4967 217.723 37.3965 217.258 37.3965C216.799 37.3965 216.406 37.4967 216.076 37.6973C215.747 37.8906 215.478 38.1592 215.271 38.5029C215.063 38.8395 214.909 39.2298 214.809 39.6738C214.708 40.1107 214.658 40.5798 214.658 41.0811ZM227.624 37.751V47H224.788V35.377H227.474L227.624 37.751ZM231.158 35.3018L231.115 37.9443C230.958 37.9157 230.779 37.8942 230.578 37.8799C230.385 37.8656 230.202 37.8584 230.03 37.8584C229.593 37.8584 229.21 37.9193 228.881 38.041C228.551 38.1556 228.276 38.3239 228.054 38.5459C227.839 38.7679 227.674 39.04 227.56 39.3623C227.445 39.6774 227.381 40.0355 227.366 40.4365L226.754 40.3613C226.754 39.6237 226.829 38.9398 226.979 38.3096C227.13 37.6794 227.348 37.1279 227.635 36.6553C227.921 36.1826 228.279 35.8174 228.709 35.5596C229.146 35.2946 229.647 35.1621 230.213 35.1621C230.37 35.1621 230.539 35.1764 230.718 35.2051C230.904 35.2266 231.051 35.2588 231.158 35.3018ZM244.629 33.7334L240.171 47H237.045L242.889 31.3594H244.887L244.629 33.7334ZM248.356 47L243.877 33.7334L243.608 31.3594H245.617L251.493 47H248.356ZM248.152 41.1885V43.5195H239.763V41.1885H248.152ZM255.393 37.8584V47H252.557V35.377H255.221L255.393 37.8584ZM254.941 40.7695H254.104C254.111 39.9245 254.225 39.1582 254.447 38.4707C254.669 37.7832 254.981 37.1924 255.382 36.6982C255.79 36.2041 256.273 35.8245 256.832 35.5596C257.391 35.2946 258.014 35.1621 258.701 35.1621C259.26 35.1621 259.765 35.2409 260.216 35.3984C260.667 35.556 261.054 35.8066 261.376 36.1504C261.705 36.4941 261.956 36.9453 262.128 37.5039C262.307 38.0553 262.396 38.7357 262.396 39.5449V47H259.539V39.5234C259.539 38.9935 259.46 38.5745 259.303 38.2666C259.152 37.9587 258.93 37.7402 258.637 37.6113C258.35 37.4824 257.996 37.418 257.573 37.418C257.136 37.418 256.753 37.5075 256.424 37.6865C256.102 37.8584 255.829 38.0983 255.607 38.4062C255.393 38.7142 255.228 39.0687 255.113 39.4697C254.999 39.8708 254.941 40.304 254.941 40.7695ZM271.871 44.5293V30.5H274.729V47H272.15L271.871 44.5293ZM264.405 41.3281V41.1025C264.405 40.2145 264.506 39.4089 264.706 38.6855C264.914 37.9551 265.215 37.3285 265.608 36.8057C266.002 36.2829 266.479 35.8783 267.037 35.5918C267.603 35.3053 268.244 35.1621 268.96 35.1621C269.655 35.1621 270.26 35.3018 270.775 35.5811C271.298 35.8604 271.742 36.2578 272.107 36.7734C272.48 37.2891 272.777 37.9014 272.999 38.6104C273.221 39.3122 273.382 40.0856 273.482 40.9307V41.543C273.382 42.3665 273.221 43.1221 272.999 43.8096C272.777 44.4971 272.48 45.0986 272.107 45.6143C271.742 46.1227 271.298 46.5166 270.775 46.7959C270.253 47.0752 269.64 47.2148 268.938 47.2148C268.229 47.2148 267.592 47.068 267.026 46.7744C266.468 46.4808 265.992 46.069 265.598 45.5391C265.211 45.0091 264.914 44.3861 264.706 43.6699C264.506 42.9538 264.405 42.1732 264.405 41.3281ZM267.252 41.1025V41.3281C267.252 41.8294 267.295 42.2985 267.381 42.7354C267.467 43.1722 267.606 43.5589 267.8 43.8955C267.993 44.2249 268.24 44.4827 268.541 44.6689C268.849 44.8551 269.221 44.9482 269.658 44.9482C270.217 44.9482 270.675 44.8265 271.033 44.583C271.398 44.3324 271.681 43.9922 271.882 43.5625C272.082 43.1257 272.211 42.6351 272.269 42.0908V40.4043C272.24 39.9746 272.165 39.5771 272.043 39.2119C271.928 38.8467 271.764 38.5316 271.549 38.2666C271.341 38.0016 271.083 37.7939 270.775 37.6436C270.467 37.4932 270.102 37.418 269.68 37.418C269.243 37.418 268.87 37.5146 268.562 37.708C268.255 37.8942 268.004 38.1556 267.811 38.4922C267.617 38.8288 267.474 39.2191 267.381 39.6631C267.295 40.1071 267.252 40.5869 267.252 41.1025ZM280.132 37.751V47H277.296V35.377H279.981L280.132 37.751ZM283.666 35.3018L283.623 37.9443C283.465 37.9157 283.286 37.8942 283.086 37.8799C282.893 37.8656 282.71 37.8584 282.538 37.8584C282.101 37.8584 281.718 37.9193 281.389 38.041C281.059 38.1556 280.784 38.3239 280.562 38.5459C280.347 38.7679 280.182 39.04 280.067 39.3623C279.953 39.6774 279.888 40.0355 279.874 40.4365L279.262 40.3613C279.262 39.6237 279.337 38.9398 279.487 38.3096C279.638 37.6794 279.856 37.1279 280.143 36.6553C280.429 36.1826 280.787 35.8174 281.217 35.5596C281.654 35.2946 282.155 35.1621 282.721 35.1621C282.878 35.1621 283.047 35.1764 283.226 35.2051C283.412 35.2266 283.559 35.2588 283.666 35.3018ZM284.418 41.3066V41.0811C284.418 40.2288 284.54 39.4447 284.783 38.7285C285.027 38.0052 285.381 37.3786 285.847 36.8486C286.312 36.3187 286.882 35.9069 287.555 35.6133C288.228 35.3125 288.994 35.1621 289.854 35.1621C290.727 35.1621 291.501 35.3125 292.174 35.6133C292.854 35.9069 293.427 36.3187 293.893 36.8486C294.358 37.3786 294.713 38.0052 294.956 38.7285C295.2 39.4447 295.321 40.2288 295.321 41.0811V41.3066C295.321 42.1517 295.2 42.9359 294.956 43.6592C294.713 44.3753 294.358 45.002 293.893 45.5391C293.427 46.069 292.858 46.4808 292.185 46.7744C291.511 47.068 290.742 47.2148 289.875 47.2148C289.016 47.2148 288.246 47.068 287.565 46.7744C286.885 46.4808 286.312 46.069 285.847 45.5391C285.381 45.002 285.027 44.3753 284.783 43.6592C284.54 42.9359 284.418 42.1517 284.418 41.3066ZM287.254 41.0811V41.3066C287.254 41.8151 287.304 42.2913 287.404 42.7354C287.505 43.1794 287.659 43.5697 287.866 43.9062C288.074 44.2428 288.342 44.5078 288.672 44.7012C289.008 44.8874 289.41 44.9805 289.875 44.9805C290.333 44.9805 290.727 44.8874 291.057 44.7012C291.386 44.5078 291.655 44.2428 291.862 43.9062C292.077 43.5697 292.235 43.1794 292.335 42.7354C292.435 42.2913 292.485 41.8151 292.485 41.3066V41.0811C292.485 40.5798 292.435 40.1107 292.335 39.6738C292.235 39.2298 292.077 38.8395 291.862 38.5029C291.655 38.1592 291.382 37.8906 291.046 37.6973C290.716 37.4967 290.319 37.3965 289.854 37.3965C289.395 37.3965 289.001 37.4967 288.672 37.6973C288.342 37.8906 288.074 38.1592 287.866 38.5029C287.659 38.8395 287.505 39.2298 287.404 39.6738C287.304 40.1107 287.254 40.5798 287.254 41.0811ZM300.392 35.377V47H297.545V35.377H300.392ZM297.352 32.3369C297.352 31.9144 297.495 31.5635 297.781 31.2842C298.075 31.0049 298.469 30.8652 298.963 30.8652C299.457 30.8652 299.847 31.0049 300.134 31.2842C300.427 31.5635 300.574 31.9144 300.574 32.3369C300.574 32.7523 300.427 33.0996 300.134 33.3789C299.847 33.6582 299.457 33.7979 298.963 33.7979C298.469 33.7979 298.075 33.6582 297.781 33.3789C297.495 33.0996 297.352 32.7523 297.352 32.3369ZM310.07 44.5293V30.5H312.928V47H310.35L310.07 44.5293ZM302.604 41.3281V41.1025C302.604 40.2145 302.705 39.4089 302.905 38.6855C303.113 37.9551 303.414 37.3285 303.808 36.8057C304.201 36.2829 304.678 35.8783 305.236 35.5918C305.802 35.3053 306.443 35.1621 307.159 35.1621C307.854 35.1621 308.459 35.3018 308.975 35.5811C309.497 35.8604 309.941 36.2578 310.307 36.7734C310.679 37.2891 310.976 37.9014 311.198 38.6104C311.42 39.3122 311.581 40.0856 311.682 40.9307V41.543C311.581 42.3665 311.42 43.1221 311.198 43.8096C310.976 44.4971 310.679 45.0986 310.307 45.6143C309.941 46.1227 309.497 46.5166 308.975 46.7959C308.452 47.0752 307.84 47.2148 307.138 47.2148C306.429 47.2148 305.791 47.068 305.226 46.7744C304.667 46.4808 304.191 46.069 303.797 45.5391C303.41 45.0091 303.113 44.3861 302.905 43.6699C302.705 42.9538 302.604 42.1732 302.604 41.3281ZM305.451 41.1025V41.3281C305.451 41.8294 305.494 42.2985 305.58 42.7354C305.666 43.1722 305.806 43.5589 305.999 43.8955C306.192 44.2249 306.439 44.4827 306.74 44.6689C307.048 44.8551 307.421 44.9482 307.857 44.9482C308.416 44.9482 308.874 44.8265 309.232 44.583C309.598 44.3324 309.881 43.9922 310.081 43.5625C310.282 43.1257 310.41 42.6351 310.468 42.0908V40.4043C310.439 39.9746 310.364 39.5771 310.242 39.2119C310.128 38.8467 309.963 38.5316 309.748 38.2666C309.54 38.0016 309.283 37.7939 308.975 37.6436C308.667 37.4932 308.301 37.418 307.879 37.418C307.442 37.418 307.07 37.5146 306.762 37.708C306.454 37.8942 306.203 38.1556 306.01 38.4922C305.816 38.8288 305.673 39.2191 305.58 39.6631C305.494 40.1071 305.451 40.5869 305.451 41.1025Z" fill="#110F0F"/>
</g>
<defs>
<filter id="filter0_d_75_23" x="0" y="0" width="375" height="100" filterUnits="userSpaceOnUse" color-interpolation-filters="sRGB">
<feFlood flood-opacity="0" result="BackgroundImageFix"/>
<feColorMatrix in="SourceAlpha" type="matrix" values="0 0 0 0 0 0 0 0 0 0 0 0 0 0 0 0 0 0 127 0" result="hardAlpha"/>
<feOffset dx="2" dy="11"/>
<feGaussianBlur stdDeviation="10"/>
<feComposite in2="hardAlpha" operator="out"/>
<feColorMatrix type="matrix" values="0 0 0 0 0.12549 0 0 0 0 0.12549 0 0 0 0 0.12549 0 0 0 0.5 0"/>
<feBlend mode="normal" in2="BackgroundImageFix" result="effect1_dropShadow_75_23"/>
<feBlend mode="normal" in="SourceGraphic" in2="effect1_dropShadow_75_23" result="shape"/>
</filter>
</defs>
</svg>
