<svg width="30" height="30" viewBox="0 0 30 30" fill="none" xmlns="http://www.w3.org/2000/svg">
<path d="M0 1.84102V28.1576C0.000189873 28.2147 0.0185293 28.2705 0.0527188 28.318C0.0869082 28.3654 0.135426 28.4024 0.192187 28.4244C0.248949 28.4464 0.311427 28.4523 0.371789 28.4414C0.43215 28.4305 0.487707 28.4033 0.531493 28.3632L15.2886 15L0.531493 1.63545C0.487707 1.59536 0.43215 1.56817 0.371789 1.55728C0.311427 1.5464 0.248949 1.55231 0.192187 1.57426C0.135426 1.59622 0.0869082 1.63324 0.0527188 1.6807C0.0185293 1.72815 0.000189873 1.78393 0 1.84102ZM21.4761 9.509L2.97261 0.0430562L2.96108 0.0370295C2.64232 -0.123683 2.33944 0.276759 2.6005 0.509791L17.1052 13.3882L21.4761 9.509ZM2.60194 29.4902C2.33944 29.7232 2.64232 30.1237 2.96252 29.963L2.97406 29.9569L21.4761 20.491L17.1052 16.6105L2.60194 29.4902ZM28.9458 13.3259L23.7787 10.6835L18.9203 15L23.7787 19.3144L28.9458 16.6741C30.3514 15.9529 30.3514 14.0471 28.9458 13.3259Z" fill="black"/>
</svg>
