<svg width="365" height="100" viewBox="0 0 365 100" fill="none" xmlns="http://www.w3.org/2000/svg">
<g filter="url(#filter0_d_75_26)">
<rect x="18" y="9" width="325" height="60" rx="8" fill="#F6BD11" shape-rendering="crispEdges"/>
<path d="M71 24C62.7138 24 56 30.7138 56 39C56 47.2862 62.7138 54 71 54C79.2862 54 86 47.2862 86 39C86 30.7138 79.2862 24 71 24ZM65.308 45.5551C65.216 45.7121 65.0842 45.8421 64.926 45.932C64.7678 46.022 64.5887 46.0687 64.4067 46.0674C64.2212 46.069 64.039 46.0189 63.8804 45.9228C63.7623 45.8543 63.6589 45.7633 63.5761 45.6548C63.4933 45.5462 63.4327 45.4225 63.3978 45.2905C63.363 45.1585 63.3546 45.021 63.373 44.8858C63.3915 44.7505 63.4364 44.6203 63.5054 44.5025L64.5292 42.8002C64.581 42.7124 64.6548 42.6396 64.7434 42.5891C64.8319 42.5385 64.9322 42.5121 65.0342 42.5123H65.1855C65.9281 42.5123 66.4478 42.9589 66.5991 43.3915L65.308 45.5551ZM73.9766 42.2069L67.2714 42.2143H62.815C62.6747 42.2149 62.5359 42.187 62.4068 42.1323C62.2777 42.0776 62.161 41.9973 62.0639 41.8961C61.9668 41.795 61.8912 41.6752 61.8418 41.544C61.7923 41.4128 61.7701 41.2729 61.7763 41.1328C61.7978 40.5703 62.2886 40.1444 62.8478 40.1444H66.0781L69.9078 33.6254L68.6676 31.5127C68.3884 31.0312 68.5123 30.3964 68.9911 30.0938C69.1091 30.0174 69.2414 29.9657 69.3799 29.9418C69.5184 29.9179 69.6603 29.9222 69.7971 29.9546C69.9339 29.9869 70.0628 30.0466 70.176 30.13C70.2891 30.2134 70.3842 30.3188 70.4556 30.44L71.1185 31.5723H71.1259L71.7895 30.44C71.8609 30.3195 71.9559 30.2146 72.0688 30.1316C72.1816 30.0486 72.31 29.9892 72.4463 29.9569C72.5826 29.9246 72.724 29.92 72.8621 29.9436C73.0001 29.9671 73.1321 30.0182 73.25 30.0938C73.7261 30.3964 73.8487 31.0312 73.5674 31.5147L72.3272 33.6275L71.1219 35.6826L68.5042 40.1464V40.1538H72.3621C72.8455 40.1538 73.4516 40.4136 73.6966 40.8315L73.7181 40.875C73.9344 41.2426 74.0569 41.4951 74.0569 41.8627C74.0534 41.9821 74.0268 42.0997 73.9786 42.2089L73.9766 42.2069ZM79.183 42.2143H77.3676V42.2217L78.6949 44.479C78.8376 44.7168 78.8813 45.001 78.8166 45.2707C78.7518 45.5403 78.5838 45.7738 78.3487 45.9208C78.1857 46.0201 77.9985 46.0727 77.8076 46.0728C77.6261 46.0727 77.4477 46.0257 77.2898 45.9362C77.1318 45.8468 76.9997 45.7181 76.9062 45.5625L74.9449 42.2237L73.7261 40.1478L72.1538 37.4598C71.9261 37.076 71.8023 36.6395 71.7946 36.1933C71.787 35.7471 71.8958 35.3065 72.1103 34.9152C72.421 34.3667 72.6587 34.2228 72.6587 34.2228L76.1562 40.1384H79.1636C79.7261 40.1384 80.2089 40.571 80.235 41.1261C80.2405 41.2673 80.2173 41.408 80.1669 41.54C80.1166 41.6719 80.04 41.7924 79.942 41.894C79.8439 41.9956 79.7263 42.0764 79.5962 42.1314C79.4661 42.1865 79.3263 42.2147 79.185 42.2143H79.183Z" fill="#110F0F"/>
<path d="M102.166 47H98.793L98.8145 44.6797H102.166C103.076 44.6797 103.838 44.4792 104.454 44.0781C105.07 43.6699 105.535 43.0863 105.851 42.3271C106.166 41.5609 106.323 40.6442 106.323 39.5771V38.7715C106.323 37.9479 106.234 37.221 106.055 36.5908C105.876 35.9606 105.611 35.4307 105.26 35.001C104.916 34.5713 104.49 34.2454 103.981 34.0234C103.473 33.8014 102.889 33.6904 102.23 33.6904H98.7285V31.3594H102.23C103.276 31.3594 104.229 31.5348 105.088 31.8857C105.954 32.2367 106.703 32.7415 107.333 33.4004C107.97 34.0521 108.457 34.8327 108.794 35.7422C109.138 36.6517 109.31 37.6686 109.31 38.793V39.5771C109.31 40.6943 109.138 41.7113 108.794 42.6279C108.457 43.5374 107.97 44.318 107.333 44.9697C106.703 45.6214 105.951 46.1227 105.077 46.4736C104.203 46.8245 103.233 47 102.166 47ZM100.447 31.3594V47H97.4932V31.3594H100.447ZM111.104 41.3066V41.0811C111.104 40.2288 111.225 39.4447 111.469 38.7285C111.712 38.0052 112.067 37.3786 112.532 36.8486C112.998 36.3187 113.567 35.9069 114.24 35.6133C114.913 35.3125 115.68 35.1621 116.539 35.1621C117.413 35.1621 118.186 35.3125 118.859 35.6133C119.54 35.9069 120.113 36.3187 120.578 36.8486C121.044 37.3786 121.398 38.0052 121.642 38.7285C121.885 39.4447 122.007 40.2288 122.007 41.0811V41.3066C122.007 42.1517 121.885 42.9359 121.642 43.6592C121.398 44.3753 121.044 45.002 120.578 45.5391C120.113 46.069 119.543 46.4808 118.87 46.7744C118.197 47.068 117.427 47.2148 116.561 47.2148C115.701 47.2148 114.931 47.068 114.251 46.7744C113.571 46.4808 112.998 46.069 112.532 45.5391C112.067 45.002 111.712 44.3753 111.469 43.6592C111.225 42.9359 111.104 42.1517 111.104 41.3066ZM113.939 41.0811V41.3066C113.939 41.8151 113.99 42.2913 114.09 42.7354C114.19 43.1794 114.344 43.5697 114.552 43.9062C114.759 44.2428 115.028 44.5078 115.357 44.7012C115.694 44.8874 116.095 44.9805 116.561 44.9805C117.019 44.9805 117.413 44.8874 117.742 44.7012C118.072 44.5078 118.34 44.2428 118.548 43.9062C118.763 43.5697 118.92 43.1794 119.021 42.7354C119.121 42.2913 119.171 41.8151 119.171 41.3066V41.0811C119.171 40.5798 119.121 40.1107 119.021 39.6738C118.92 39.2298 118.763 38.8395 118.548 38.5029C118.34 38.1592 118.068 37.8906 117.731 37.6973C117.402 37.4967 117.005 37.3965 116.539 37.3965C116.081 37.3965 115.687 37.4967 115.357 37.6973C115.028 37.8906 114.759 38.1592 114.552 38.5029C114.344 38.8395 114.19 39.2298 114.09 39.6738C113.99 40.1107 113.939 40.5798 113.939 41.0811ZM127.303 44.207L129.849 35.377H131.653L131.116 38.4277L128.549 47H126.991L127.303 44.207ZM125.896 35.377L127.808 44.2285L127.979 47H126.186L123.135 35.377H125.896ZM134.017 44.0996L135.886 35.377H138.636L135.606 47H133.812L134.017 44.0996ZM131.933 35.377L134.457 44.1211L134.79 47H133.232L130.644 38.4277L130.117 35.377H131.933ZM143.094 37.8584V47H140.258V35.377H142.922L143.094 37.8584ZM142.643 40.7695H141.805C141.812 39.9245 141.926 39.1582 142.148 38.4707C142.37 37.7832 142.682 37.1924 143.083 36.6982C143.491 36.2041 143.975 35.8245 144.533 35.5596C145.092 35.2946 145.715 35.1621 146.402 35.1621C146.961 35.1621 147.466 35.2409 147.917 35.3984C148.368 35.556 148.755 35.8066 149.077 36.1504C149.407 36.4941 149.657 36.9453 149.829 37.5039C150.008 38.0553 150.098 38.7357 150.098 39.5449V47H147.24V39.5234C147.24 38.9935 147.161 38.5745 147.004 38.2666C146.854 37.9587 146.632 37.7402 146.338 37.6113C146.051 37.4824 145.697 37.418 145.274 37.418C144.838 37.418 144.454 37.5075 144.125 37.6865C143.803 37.8584 143.531 38.0983 143.309 38.4062C143.094 38.7142 142.929 39.0687 142.814 39.4697C142.7 39.8708 142.643 40.304 142.643 40.7695ZM155.608 30.5V47H152.762V30.5H155.608ZM157.811 41.3066V41.0811C157.811 40.2288 157.932 39.4447 158.176 38.7285C158.419 38.0052 158.774 37.3786 159.239 36.8486C159.705 36.3187 160.274 35.9069 160.947 35.6133C161.62 35.3125 162.387 35.1621 163.246 35.1621C164.12 35.1621 164.893 35.3125 165.566 35.6133C166.247 35.9069 166.82 36.3187 167.285 36.8486C167.751 37.3786 168.105 38.0052 168.349 38.7285C168.592 39.4447 168.714 40.2288 168.714 41.0811V41.3066C168.714 42.1517 168.592 42.9359 168.349 43.6592C168.105 44.3753 167.751 45.002 167.285 45.5391C166.82 46.069 166.25 46.4808 165.577 46.7744C164.904 47.068 164.134 47.2148 163.268 47.2148C162.408 47.2148 161.638 47.068 160.958 46.7744C160.278 46.4808 159.705 46.069 159.239 45.5391C158.774 45.002 158.419 44.3753 158.176 43.6592C157.932 42.9359 157.811 42.1517 157.811 41.3066ZM160.646 41.0811V41.3066C160.646 41.8151 160.697 42.2913 160.797 42.7354C160.897 43.1794 161.051 43.5697 161.259 43.9062C161.466 44.2428 161.735 44.5078 162.064 44.7012C162.401 44.8874 162.802 44.9805 163.268 44.9805C163.726 44.9805 164.12 44.8874 164.449 44.7012C164.779 44.5078 165.047 44.2428 165.255 43.9062C165.47 43.5697 165.627 43.1794 165.728 42.7354C165.828 42.2913 165.878 41.8151 165.878 41.3066V41.0811C165.878 40.5798 165.828 40.1107 165.728 39.6738C165.627 39.2298 165.47 38.8395 165.255 38.5029C165.047 38.1592 164.775 37.8906 164.438 37.6973C164.109 37.4967 163.712 37.3965 163.246 37.3965C162.788 37.3965 162.394 37.4967 162.064 37.6973C161.735 37.8906 161.466 38.1592 161.259 38.5029C161.051 38.8395 160.897 39.2298 160.797 39.6738C160.697 40.1107 160.646 40.5798 160.646 41.0811ZM177.179 44.5293V39.1689C177.179 38.7751 177.111 38.4349 176.975 38.1484C176.839 37.862 176.631 37.64 176.352 37.4824C176.072 37.3249 175.718 37.2461 175.288 37.2461C174.909 37.2461 174.576 37.3105 174.289 37.4395C174.01 37.5684 173.795 37.751 173.645 37.9873C173.494 38.2165 173.419 38.4814 173.419 38.7822H170.572C170.572 38.3024 170.687 37.8477 170.916 37.418C171.145 36.9811 171.471 36.5944 171.894 36.2578C172.323 35.9141 172.835 35.6455 173.43 35.4521C174.031 35.2588 174.704 35.1621 175.449 35.1621C176.33 35.1621 177.114 35.3125 177.802 35.6133C178.496 35.9069 179.041 36.3509 179.435 36.9453C179.836 37.5397 180.036 38.2881 180.036 39.1904V44.2607C180.036 44.8408 180.072 45.3385 180.144 45.7539C180.222 46.1621 180.337 46.5166 180.487 46.8174V47H177.598C177.462 46.7064 177.358 46.334 177.286 45.8828C177.215 45.4245 177.179 44.9733 177.179 44.5293ZM177.576 39.9209L177.598 41.6074H175.804C175.36 41.6074 174.969 41.654 174.633 41.7471C174.296 41.833 174.021 41.9619 173.806 42.1338C173.591 42.2985 173.43 42.499 173.322 42.7354C173.215 42.9645 173.161 43.2259 173.161 43.5195C173.161 43.806 173.226 44.0638 173.354 44.293C173.491 44.5221 173.684 44.7048 173.935 44.8408C174.192 44.9697 174.493 45.0342 174.837 45.0342C175.338 45.0342 175.775 44.9339 176.147 44.7334C176.52 44.5257 176.81 44.2751 177.018 43.9814C177.225 43.6878 177.336 43.4085 177.351 43.1436L178.167 44.3682C178.067 44.6618 177.916 44.9733 177.716 45.3027C177.515 45.6322 177.257 45.9401 176.942 46.2266C176.627 46.513 176.248 46.7493 175.804 46.9355C175.36 47.1217 174.844 47.2148 174.257 47.2148C173.505 47.2148 172.832 47.0645 172.237 46.7637C171.643 46.4629 171.174 46.0511 170.83 45.5283C170.486 45.0055 170.314 44.4111 170.314 43.7451C170.314 43.1292 170.429 42.585 170.658 42.1123C170.887 41.6396 171.228 41.2422 171.679 40.9199C172.13 40.5905 172.688 40.3434 173.354 40.1787C174.028 40.0068 174.798 39.9209 175.664 39.9209H177.576ZM189.564 44.5293V30.5H192.422V47H189.844L189.564 44.5293ZM182.099 41.3281V41.1025C182.099 40.2145 182.199 39.4089 182.399 38.6855C182.607 37.9551 182.908 37.3285 183.302 36.8057C183.696 36.2829 184.172 35.8783 184.73 35.5918C185.296 35.3053 185.937 35.1621 186.653 35.1621C187.348 35.1621 187.953 35.3018 188.469 35.5811C188.992 35.8604 189.436 36.2578 189.801 36.7734C190.173 37.2891 190.47 37.9014 190.692 38.6104C190.914 39.3122 191.076 40.0856 191.176 40.9307V41.543C191.076 42.3665 190.914 43.1221 190.692 43.8096C190.47 44.4971 190.173 45.0986 189.801 45.6143C189.436 46.1227 188.992 46.5166 188.469 46.7959C187.946 47.0752 187.334 47.2148 186.632 47.2148C185.923 47.2148 185.285 47.068 184.72 46.7744C184.161 46.4808 183.685 46.069 183.291 45.5391C182.904 45.0091 182.607 44.3861 182.399 43.6699C182.199 42.9538 182.099 42.1732 182.099 41.3281ZM184.945 41.1025V41.3281C184.945 41.8294 184.988 42.2985 185.074 42.7354C185.16 43.1722 185.3 43.5589 185.493 43.8955C185.687 44.2249 185.934 44.4827 186.234 44.6689C186.542 44.8551 186.915 44.9482 187.352 44.9482C187.91 44.9482 188.368 44.8265 188.727 44.583C189.092 44.3324 189.375 43.9922 189.575 43.5625C189.776 43.1257 189.905 42.6351 189.962 42.0908V40.4043C189.933 39.9746 189.858 39.5771 189.736 39.2119C189.622 38.8467 189.457 38.5316 189.242 38.2666C189.035 38.0016 188.777 37.7939 188.469 37.6436C188.161 37.4932 187.796 37.418 187.373 37.418C186.936 37.418 186.564 37.5146 186.256 37.708C185.948 37.8942 185.697 38.1556 185.504 38.4922C185.311 38.8288 185.167 39.2191 185.074 39.6631C184.988 40.1071 184.945 40.5869 184.945 41.1025ZM203.637 31.3594V47H200.683V31.3594H203.637ZM209.942 38.1162V40.4473H202.863V38.1162H209.942ZM210.77 31.3594V33.6904H202.863V31.3594H210.77ZM211.822 41.3066V41.0811C211.822 40.2288 211.944 39.4447 212.188 38.7285C212.431 38.0052 212.785 37.3786 213.251 36.8486C213.716 36.3187 214.286 35.9069 214.959 35.6133C215.632 35.3125 216.398 35.1621 217.258 35.1621C218.132 35.1621 218.905 35.3125 219.578 35.6133C220.258 35.9069 220.831 36.3187 221.297 36.8486C221.762 37.3786 222.117 38.0052 222.36 38.7285C222.604 39.4447 222.726 40.2288 222.726 41.0811V41.3066C222.726 42.1517 222.604 42.9359 222.36 43.6592C222.117 44.3753 221.762 45.002 221.297 45.5391C220.831 46.069 220.262 46.4808 219.589 46.7744C218.916 47.068 218.146 47.2148 217.279 47.2148C216.42 47.2148 215.65 47.068 214.97 46.7744C214.289 46.4808 213.716 46.069 213.251 45.5391C212.785 45.002 212.431 44.3753 212.188 43.6592C211.944 42.9359 211.822 42.1517 211.822 41.3066ZM214.658 41.0811V41.3066C214.658 41.8151 214.708 42.2913 214.809 42.7354C214.909 43.1794 215.063 43.5697 215.271 43.9062C215.478 44.2428 215.747 44.5078 216.076 44.7012C216.413 44.8874 216.814 44.9805 217.279 44.9805C217.738 44.9805 218.132 44.8874 218.461 44.7012C218.79 44.5078 219.059 44.2428 219.267 43.9062C219.481 43.5697 219.639 43.1794 219.739 42.7354C219.84 42.2913 219.89 41.8151 219.89 41.3066V41.0811C219.89 40.5798 219.84 40.1107 219.739 39.6738C219.639 39.2298 219.481 38.8395 219.267 38.5029C219.059 38.1592 218.787 37.8906 218.45 37.6973C218.121 37.4967 217.723 37.3965 217.258 37.3965C216.799 37.3965 216.406 37.4967 216.076 37.6973C215.747 37.8906 215.478 38.1592 215.271 38.5029C215.063 38.8395 214.909 39.2298 214.809 39.6738C214.708 40.1107 214.658 40.5798 214.658 41.0811ZM227.624 37.751V47H224.788V35.377H227.474L227.624 37.751ZM231.158 35.3018L231.115 37.9443C230.958 37.9157 230.779 37.8942 230.578 37.8799C230.385 37.8656 230.202 37.8584 230.03 37.8584C229.593 37.8584 229.21 37.9193 228.881 38.041C228.551 38.1556 228.276 38.3239 228.054 38.5459C227.839 38.7679 227.674 39.04 227.56 39.3623C227.445 39.6774 227.381 40.0355 227.366 40.4365L226.754 40.3613C226.754 39.6237 226.829 38.9398 226.979 38.3096C227.13 37.6794 227.348 37.1279 227.635 36.6553C227.921 36.1826 228.279 35.8174 228.709 35.5596C229.146 35.2946 229.647 35.1621 230.213 35.1621C230.37 35.1621 230.539 35.1764 230.718 35.2051C230.904 35.2266 231.051 35.2588 231.158 35.3018ZM241.557 31.3594V47H238.603V31.3594H241.557ZM247.368 37.6113V51.4688H244.521V35.377H247.153L247.368 37.6113ZM254.834 41.0703V41.2959C254.834 42.141 254.734 42.9251 254.533 43.6484C254.34 44.3646 254.053 44.9912 253.674 45.5283C253.294 46.0583 252.822 46.4736 252.256 46.7744C251.697 47.068 251.053 47.2148 250.322 47.2148C249.606 47.2148 248.983 47.0788 248.453 46.8066C247.923 46.5273 247.476 46.1335 247.11 45.625C246.745 45.1165 246.451 44.5257 246.229 43.8525C246.015 43.1722 245.854 42.431 245.746 41.6289V40.9092C245.854 40.057 246.015 39.2835 246.229 38.5889C246.451 37.887 246.745 37.2819 247.11 36.7734C247.476 36.2578 247.92 35.8604 248.442 35.5811C248.972 35.3018 249.592 35.1621 250.301 35.1621C251.038 35.1621 251.687 35.3018 252.245 35.5811C252.811 35.8604 253.287 36.2614 253.674 36.7842C254.061 37.307 254.351 37.93 254.544 38.6533C254.737 39.3766 254.834 40.1823 254.834 41.0703ZM251.987 41.2959V41.0703C251.987 40.5547 251.941 40.0785 251.848 39.6416C251.755 39.1976 251.611 38.8109 251.418 38.4814C251.225 38.1449 250.974 37.8835 250.666 37.6973C250.358 37.5111 249.986 37.418 249.549 37.418C249.112 37.418 248.736 37.4896 248.421 37.6328C248.106 37.776 247.848 37.9801 247.647 38.2451C247.447 38.5101 247.289 38.8252 247.175 39.1904C247.067 39.5485 246.996 39.946 246.96 40.3828V42.166C247.024 42.696 247.15 43.1722 247.336 43.5947C247.522 44.0173 247.794 44.3538 248.152 44.6045C248.518 44.8551 248.99 44.9805 249.57 44.9805C250.007 44.9805 250.38 44.8838 250.688 44.6904C250.995 44.4971 251.246 44.2321 251.439 43.8955C251.633 43.5518 251.772 43.1579 251.858 42.7139C251.944 42.2699 251.987 41.7972 251.987 41.2959ZM259.689 30.5V47H256.843V30.5H259.689ZM259.238 40.7695H258.4C258.4 39.9603 258.508 39.2155 258.723 38.5352C258.938 37.8548 259.242 37.264 259.636 36.7627C260.03 36.2542 260.499 35.8604 261.043 35.5811C261.594 35.3018 262.203 35.1621 262.869 35.1621C263.442 35.1621 263.961 35.2445 264.427 35.4092C264.899 35.5667 265.304 35.821 265.641 36.1719C265.977 36.5228 266.235 36.9811 266.414 37.5469C266.6 38.1055 266.693 38.7858 266.693 39.5879V47H263.836V39.5664C263.836 39.0293 263.757 38.6068 263.6 38.2988C263.442 37.9837 263.216 37.7581 262.923 37.6221C262.636 37.486 262.282 37.418 261.859 37.418C261.401 37.418 261.007 37.5075 260.678 37.6865C260.348 37.8584 260.076 38.0983 259.861 38.4062C259.654 38.7142 259.496 39.0687 259.389 39.4697C259.288 39.8708 259.238 40.304 259.238 40.7695ZM268.691 41.3066V41.0811C268.691 40.2288 268.813 39.4447 269.057 38.7285C269.3 38.0052 269.655 37.3786 270.12 36.8486C270.586 36.3187 271.155 35.9069 271.828 35.6133C272.501 35.3125 273.268 35.1621 274.127 35.1621C275.001 35.1621 275.774 35.3125 276.447 35.6133C277.128 35.9069 277.701 36.3187 278.166 36.8486C278.632 37.3786 278.986 38.0052 279.229 38.7285C279.473 39.4447 279.595 40.2288 279.595 41.0811V41.3066C279.595 42.1517 279.473 42.9359 279.229 43.6592C278.986 44.3753 278.632 45.002 278.166 45.5391C277.701 46.069 277.131 46.4808 276.458 46.7744C275.785 47.068 275.015 47.2148 274.148 47.2148C273.289 47.2148 272.519 47.068 271.839 46.7744C271.159 46.4808 270.586 46.069 270.12 45.5391C269.655 45.002 269.3 44.3753 269.057 43.6592C268.813 42.9359 268.691 42.1517 268.691 41.3066ZM271.527 41.0811V41.3066C271.527 41.8151 271.577 42.2913 271.678 42.7354C271.778 43.1794 271.932 43.5697 272.14 43.9062C272.347 44.2428 272.616 44.5078 272.945 44.7012C273.282 44.8874 273.683 44.9805 274.148 44.9805C274.607 44.9805 275.001 44.8874 275.33 44.7012C275.66 44.5078 275.928 44.2428 276.136 43.9062C276.351 43.5697 276.508 43.1794 276.608 42.7354C276.709 42.2913 276.759 41.8151 276.759 41.3066V41.0811C276.759 40.5798 276.709 40.1107 276.608 39.6738C276.508 39.2298 276.351 38.8395 276.136 38.5029C275.928 38.1592 275.656 37.8906 275.319 37.6973C274.99 37.4967 274.592 37.3965 274.127 37.3965C273.669 37.3965 273.275 37.4967 272.945 37.6973C272.616 37.8906 272.347 38.1592 272.14 38.5029C271.932 38.8395 271.778 39.2298 271.678 39.6738C271.577 40.1107 271.527 40.5798 271.527 41.0811ZM284.439 37.8584V47H281.604V35.377H284.268L284.439 37.8584ZM283.988 40.7695H283.15C283.158 39.9245 283.272 39.1582 283.494 38.4707C283.716 37.7832 284.028 37.1924 284.429 36.6982C284.837 36.2041 285.32 35.8245 285.879 35.5596C286.438 35.2946 287.061 35.1621 287.748 35.1621C288.307 35.1621 288.812 35.2409 289.263 35.3984C289.714 35.556 290.101 35.8066 290.423 36.1504C290.752 36.4941 291.003 36.9453 291.175 37.5039C291.354 38.0553 291.443 38.7357 291.443 39.5449V47H288.586V39.5234C288.586 38.9935 288.507 38.5745 288.35 38.2666C288.199 37.9587 287.977 37.7402 287.684 37.6113C287.397 37.4824 287.043 37.418 286.62 37.418C286.183 37.418 285.8 37.5075 285.471 37.6865C285.148 37.8584 284.876 38.0983 284.654 38.4062C284.439 38.7142 284.275 39.0687 284.16 39.4697C284.046 39.8708 283.988 40.304 283.988 40.7695ZM299.167 47.2148C298.286 47.2148 297.495 47.0716 296.793 46.7852C296.091 46.4987 295.493 46.1012 294.999 45.5928C294.512 45.0771 294.136 44.4792 293.871 43.7988C293.613 43.1113 293.484 42.3737 293.484 41.5859V41.1562C293.484 40.2611 293.613 39.4482 293.871 38.7178C294.129 37.9801 294.494 37.3464 294.967 36.8164C295.439 36.2865 296.005 35.8783 296.664 35.5918C297.323 35.3053 298.05 35.1621 298.845 35.1621C299.668 35.1621 300.395 35.3018 301.025 35.5811C301.656 35.8532 302.182 36.2399 302.604 36.7412C303.027 37.2425 303.346 37.8441 303.561 38.5459C303.775 39.2406 303.883 40.0104 303.883 40.8555V42.0479H294.773V40.0928H301.09V39.8779C301.076 39.4268 300.99 39.015 300.832 38.6426C300.674 38.263 300.431 37.9622 300.102 37.7402C299.772 37.5111 299.346 37.3965 298.823 37.3965C298.401 37.3965 298.032 37.4896 297.717 37.6758C297.409 37.8548 297.151 38.1126 296.943 38.4492C296.743 38.7786 296.592 39.1725 296.492 39.6309C296.392 40.0892 296.342 40.5977 296.342 41.1562V41.5859C296.342 42.0729 296.406 42.5241 296.535 42.9395C296.671 43.3548 296.868 43.7165 297.126 44.0244C297.391 44.3252 297.706 44.5615 298.071 44.7334C298.444 44.8981 298.866 44.9805 299.339 44.9805C299.933 44.9805 300.47 44.8659 300.95 44.6367C301.437 44.4004 301.86 44.0531 302.218 43.5947L303.646 45.0771C303.403 45.4352 303.074 45.779 302.658 46.1084C302.25 46.4378 301.756 46.7064 301.176 46.9141C300.596 47.1146 299.926 47.2148 299.167 47.2148Z" fill="#110F0F"/>
</g>
<defs>
<filter id="filter0_d_75_26" x="0" y="0" width="365" height="100" filterUnits="userSpaceOnUse" color-interpolation-filters="sRGB">
<feFlood flood-opacity="0" result="BackgroundImageFix"/>
<feColorMatrix in="SourceAlpha" type="matrix" values="0 0 0 0 0 0 0 0 0 0 0 0 0 0 0 0 0 0 127 0" result="hardAlpha"/>
<feOffset dx="2" dy="11"/>
<feGaussianBlur stdDeviation="10"/>
<feComposite in2="hardAlpha" operator="out"/>
<feColorMatrix type="matrix" values="0 0 0 0 0.12549 0 0 0 0 0.12549 0 0 0 0 0.12549 0 0 0 0.5 0"/>
<feBlend mode="normal" in2="BackgroundImageFix" result="effect1_dropShadow_75_26"/>
<feBlend mode="normal" in="SourceGraphic" in2="effect1_dropShadow_75_26" result="shape"/>
</filter>
</defs>
</svg>
