<svg width="124" height="24" viewBox="0 0 124 24" fill="none" xmlns="http://www.w3.org/2000/svg">
<path d="M21.2208 7.40331L14.9517 6.82187L12.4614 1.03921C12.287 0.634308 11.713 0.634308 11.5386 1.03921L9.04835 6.82182L2.77923 7.40331C2.34024 7.44399 2.16287 7.98999 2.49404 8.28095L7.22411 12.4362L5.83984 18.5782C5.7429 19.0083 6.20739 19.3457 6.58642 19.1207L12 15.9062L17.4136 19.1207C17.7927 19.3458 18.2571 19.0083 18.1602 18.5782L16.7759 12.4362L21.506 8.28095C21.8372 7.98999 21.6598 7.44399 21.2208 7.40331Z" fill="#FFDC64"/>
<path d="M13.367 3.14203L12.4614 1.03921C12.287 0.634308 11.7129 0.634308 11.5386 1.03921L9.0483 6.82182L2.77923 7.40331C2.34024 7.44399 2.16287 7.99 2.49404 8.28095L7.22411 12.4362L5.83984 18.5782C5.7429 19.0083 6.20739 19.3457 6.58642 19.1207L7.30694 18.6928C8.48814 11.0466 11.8089 5.43366 13.367 3.14203Z" fill="#FFC850"/>
<path d="M46.2208 7.40331L39.9517 6.82187L37.4614 1.03921C37.287 0.634308 36.713 0.634308 36.5386 1.03921L34.0483 6.82182L27.7792 7.40331C27.3402 7.44399 27.1629 7.98999 27.494 8.28095L32.2241 12.4362L30.8398 18.5782C30.7429 19.0083 31.2074 19.3457 31.5864 19.1207L37 15.9062L42.4136 19.1207C42.7927 19.3458 43.2571 19.0083 43.1602 18.5782L41.7759 12.4362L46.506 8.28095C46.8372 7.98999 46.6598 7.44399 46.2208 7.40331Z" fill="#FFDC64"/>
<path d="M38.367 3.14203L37.4614 1.03921C37.287 0.634308 36.7129 0.634308 36.5386 1.03921L34.0483 6.82182L27.7792 7.40331C27.3402 7.44399 27.1629 7.99 27.494 8.28095L32.2241 12.4362L30.8398 18.5782C30.7429 19.0083 31.2074 19.3457 31.5864 19.1207L32.3069 18.6928C33.4881 11.0466 36.8089 5.43366 38.367 3.14203Z" fill="#FFC850"/>
<path d="M71.2208 7.40331L64.9517 6.82187L62.4614 1.03921C62.287 0.634308 61.713 0.634308 61.5386 1.03921L59.0483 6.82182L52.7792 7.40331C52.3402 7.44399 52.1629 7.98999 52.494 8.28095L57.2241 12.4362L55.8398 18.5782C55.7429 19.0083 56.2074 19.3457 56.5864 19.1207L62 15.9062L67.4136 19.1207C67.7927 19.3458 68.2571 19.0083 68.1602 18.5782L66.7759 12.4362L71.506 8.28095C71.8372 7.98999 71.6598 7.44399 71.2208 7.40331Z" fill="#FFDC64"/>
<path d="M63.367 3.14203L62.4614 1.03921C62.287 0.634308 61.7129 0.634308 61.5386 1.03921L59.0483 6.82182L52.7792 7.40331C52.3402 7.44399 52.1629 7.99 52.494 8.28095L57.2241 12.4362L55.8398 18.5782C55.7429 19.0083 56.2074 19.3457 56.5864 19.1207L57.3069 18.6928C58.4881 11.0466 61.8089 5.43366 63.367 3.14203Z" fill="#FFC850"/>
<path d="M96.2208 7.40331L89.9517 6.82187L87.4614 1.03921C87.287 0.634308 86.713 0.634308 86.5386 1.03921L84.0483 6.82182L77.7792 7.40331C77.3402 7.44399 77.1629 7.98999 77.494 8.28095L82.2241 12.4362L80.8398 18.5782C80.7429 19.0083 81.2074 19.3457 81.5864 19.1207L87 15.9062L92.4136 19.1207C92.7927 19.3458 93.2571 19.0083 93.1602 18.5782L91.7759 12.4362L96.506 8.28095C96.8372 7.98999 96.6598 7.44399 96.2208 7.40331Z" fill="#FFDC64"/>
<path d="M88.3669 3.14203L87.4614 1.03921C87.287 0.634308 86.7129 0.634308 86.5386 1.03921L84.0483 6.82182L77.7792 7.40331C77.3402 7.44399 77.1629 7.99 77.494 8.28095L82.2241 12.4362L80.8398 18.5782C80.7429 19.0083 81.2074 19.3457 81.5864 19.1207L82.3069 18.6928C83.4881 11.0466 86.8089 5.43366 88.3669 3.14203Z" fill="#FFC850"/>
<path d="M121.221 7.40331L114.952 6.82187L112.461 1.03921C112.287 0.634308 111.713 0.634308 111.539 1.03921L109.048 6.82182L102.779 7.40331C102.34 7.44399 102.163 7.98999 102.494 8.28095L107.224 12.4362L105.84 18.5782C105.743 19.0083 106.207 19.3457 106.586 19.1207L112 15.9062L117.414 19.1207C117.793 19.3458 118.257 19.0083 118.16 18.5782L116.776 12.4362L121.506 8.28095C121.837 7.98999 121.66 7.44399 121.221 7.40331Z" fill="#FFDC64"/>
<path d="M113.367 3.14203L112.461 1.03921C112.287 0.634308 111.713 0.634308 111.539 1.03921L109.048 6.82182L102.779 7.40331C102.34 7.44399 102.163 7.99 102.494 8.28095L107.224 12.4362L105.84 18.5782C105.743 19.0083 106.207 19.3457 106.586 19.1207L107.307 18.6928C108.488 11.0466 111.809 5.43366 113.367 3.14203Z" fill="#FFC850"/>
</svg>
